<svg width="100" height="100" viewBox="0 0 100 100" fill="none" xmlns="http://www.w3.org/2000/svg">
<path d="M80.8222 64.8218C81.8722 65.8718 81.1278 67.6663 79.6444 67.6663H52C51.0778 67.6663 50.3333 68.4107 50.3333 69.3329V96.9774C50.3333 98.4607 48.5389 99.2052 47.4889 98.1552L17.65 68.3163C17.2333 67.8996 17 67.3329 17 66.7441V35.9996C17 35.0774 17.7444 34.3329 18.6667 34.3329H50.3333L80.8222 64.8218Z" fill="white"/>
<path d="M50.3333 34.333L19.8444 3.84408C18.7944 2.79408 19.5389 0.999634 21.0222 0.999634H82C82.9222 0.999634 83.6666 1.74408 83.6666 2.6663V32.6663C83.6666 33.5885 82.9222 34.333 82 34.333H50.3333Z" fill="white"/>
</svg>
