<svg width="82" height="21" viewBox="0 0 82 21" fill="none" xmlns="http://www.w3.org/2000/svg">
<path d="M10.222 20.0977C8.61746 20.0977 7.18279 19.8935 5.91802 19.4851C4.65324 19.059 3.57724 18.4465 2.69001 17.6476C1.82165 16.8487 1.15151 15.8722 0.679581 14.7182C0.226527 13.5641 0 12.2592 0 10.8034C0 9.34755 0.245404 8.04262 0.736213 6.8886C1.22702 5.73458 1.92548 4.75811 2.83159 3.95917C3.73769 3.14249 4.82314 2.52109 6.08791 2.09499C7.37156 1.66889 8.80624 1.45585 10.3919 1.45585C11.5812 1.45585 12.7327 1.58012 13.8465 1.82868C14.9791 2.05948 15.9985 2.4412 16.9046 2.97382C17.8107 3.50644 18.5658 4.19886 19.1698 5.05105C19.7928 5.8855 20.1892 6.89748 20.3591 8.087H15.9135C15.7625 7.58989 15.4793 7.16379 15.064 6.80871C14.6676 6.45363 14.1957 6.16068 13.6482 5.92988C13.1197 5.69908 12.5628 5.53041 11.9776 5.42389C11.3924 5.31736 10.8355 5.2641 10.307 5.2641C9.32536 5.2641 8.46644 5.38838 7.73023 5.63694C7.0129 5.88549 6.40883 6.24945 5.91802 6.72881C5.42721 7.19042 5.0591 7.76743 4.8137 8.45984C4.56829 9.1345 4.44559 9.9068 4.44559 10.7767C4.44559 11.6289 4.56829 12.4013 4.8137 13.0937C5.0591 13.7683 5.42721 14.3453 5.91802 14.8247C6.4277 15.304 7.04121 15.668 7.75855 15.9166C8.49476 16.1651 9.34424 16.2894 10.307 16.2894C10.8355 16.2894 11.4019 16.2361 12.0059 16.1296C12.61 16.0053 13.1763 15.8278 13.7049 15.597C14.2523 15.3484 14.7337 15.0466 15.149 14.6915C15.5832 14.3364 15.8758 13.9103 16.0268 13.4132H20.3874C20.1798 14.6028 19.755 15.6236 19.1132 16.4758C18.4903 17.3103 17.7163 18.0027 16.7913 18.553C15.8663 19.0857 14.8375 19.4763 13.7049 19.7248C12.5722 19.9734 11.4113 20.0977 10.222 20.0977Z" fill="white"/>
<path d="M21.7899 13.4132C21.7899 11.1052 22.4978 9.40969 23.9136 8.32668C25.3483 7.22593 27.3493 6.67555 29.9166 6.67555C32.4461 6.67555 34.4094 7.20818 35.8063 8.27342C37.2032 9.32091 37.9017 11.0342 37.9017 13.4132C37.9017 15.6503 37.1938 17.328 35.778 18.4465C34.3622 19.5473 32.4084 20.0977 29.9166 20.0977C28.7273 20.0977 27.6325 19.9645 26.632 19.6982C25.6503 19.4141 24.8009 18.9969 24.0835 18.4465C23.3662 17.8784 22.7999 17.1771 22.3846 16.3427C21.9882 15.5082 21.7899 14.5317 21.7899 13.4132ZM26.009 13.3866C26.009 13.9725 26.094 14.4696 26.2639 14.8779C26.4337 15.2863 26.6792 15.6236 27.0001 15.8899C27.3399 16.1385 27.7552 16.316 28.246 16.4226C28.7368 16.5291 29.2936 16.5823 29.9166 16.5823C31.1059 16.5823 32.0309 16.3072 32.6916 15.7568C33.3523 15.2064 33.6826 14.4163 33.6826 13.3866C33.6826 12.3214 33.3523 11.5313 32.6916 11.0164C32.0309 10.4838 31.1059 10.2175 29.9166 10.2175C28.7085 10.2175 27.7552 10.4927 27.0567 11.0431C26.3582 11.5934 26.009 12.3746 26.009 13.3866Z" fill="white"/>
<path d="M43.6821 12.9339C43.6821 12.5433 43.767 12.1793 43.9369 11.842C44.1068 11.4869 44.3334 11.1851 44.6165 10.9365C44.8997 10.6702 45.23 10.4661 45.6076 10.324C46.004 10.1642 46.4287 10.0843 46.8818 10.0843C47.2971 10.0843 47.6652 10.1465 47.9861 10.2708C48.307 10.3773 48.5807 10.5371 48.8073 10.7501C49.0338 10.9632 49.2037 11.2206 49.317 11.5224C49.4491 11.8242 49.5152 12.1527 49.5152 12.5078V20.0977H53.8758V12.9339C53.8758 12.5255 53.9513 12.1527 54.1023 11.8154C54.2722 11.4603 54.4988 11.1496 54.7819 10.8833C55.084 10.617 55.4332 10.4128 55.8296 10.2708C56.226 10.111 56.6508 10.0311 57.1038 10.0311C57.5002 10.0311 57.8683 10.0932 58.2081 10.2175C58.5668 10.3418 58.8688 10.5193 59.1142 10.7501C59.3596 10.9632 59.5484 11.2206 59.6806 11.5224C59.8316 11.8242 59.9071 12.1527 59.9071 12.5078V20.0977H64.2677V11.3626C64.2677 10.5459 64.1545 9.82691 63.9279 9.20551C63.7014 8.56636 63.3616 8.03374 62.9086 7.60764C62.4744 7.18154 61.927 6.86197 61.2663 6.64892C60.6244 6.43587 59.8693 6.32935 59.001 6.32935C58.5668 6.32935 58.0477 6.42699 57.4436 6.62229C56.8584 6.79983 56.3015 7.13716 55.773 7.63427C55.2444 8.11364 54.7914 8.78829 54.4138 9.65824C54.0551 10.5104 53.8758 11.6023 53.8758 12.9339C53.8758 11.6023 53.687 10.5104 53.3095 9.65824C52.9319 8.78829 52.4695 8.11364 51.922 7.63427C51.3746 7.13716 50.7894 6.79983 50.1664 6.62229C49.5624 6.42699 49.0149 6.32935 48.5241 6.32935C48.1088 6.32935 47.618 6.42699 47.0517 6.62229C46.4854 6.79983 45.9568 7.11941 45.466 7.58101C44.9752 8.04262 44.5504 8.66401 44.1918 9.44519C43.852 10.2264 43.6821 11.2206 43.6821 12.4279V6.78208H39.3214V20.0977H43.6821V12.9339Z" fill="white"/>
<path d="M71.8469 5.05105H75.1881V1.45585H70.1479C69.3362 1.45585 68.6377 1.52686 68.0525 1.66889C67.4862 1.79317 67.0237 1.97959 66.6651 2.22815C66.3253 2.45895 66.0704 2.75189 65.9005 3.10698C65.7495 3.44431 65.674 3.81714 65.674 4.22549C65.674 5.07768 66.0232 5.76122 66.7217 6.27608C67.4202 6.7732 68.5622 7.02176 70.1479 7.02176H65.674V10.3773H68.2791V20.0977H72.5548V10.3773H75.1881V7.02176H71.8469C71.2239 7.02176 70.667 6.95962 70.1762 6.83534C69.6854 6.69331 69.44 6.41812 69.44 6.00977C69.44 5.60143 69.6571 5.34399 70.0913 5.23747C70.5443 5.11319 71.1295 5.05105 71.8469 5.05105Z" fill="white"/>
<path d="M76.9364 6.80871H81.2971V20.0977H76.9364V6.80871ZM79.0884 4.73148C78.39 4.73148 77.7953 4.51843 77.3045 4.09233C76.8326 3.64848 76.5966 3.08922 76.5966 2.41457C76.5966 1.73991 76.8326 1.18953 77.3045 0.763436C77.7953 0.319583 78.39 0.0976562 79.0884 0.0976562C79.7869 0.0976562 80.3721 0.319583 80.844 0.763436C81.3159 1.20729 81.5519 1.75767 81.5519 2.41457C81.5519 3.07147 81.3159 3.62185 80.844 4.0657C80.391 4.50955 79.8058 4.73148 79.0884 4.73148Z" fill="white"/>
</svg>
